<?xml version="1.0" encoding="utf-8"?>
<!-- Generator: Adobe Illustrator 20.0.0, SVG Export Plug-In . SVG Version: 6.00 Build 0)  -->
<svg version="1.1" xmlns="http://www.w3.org/2000/svg" xmlns:xlink="http://www.w3.org/1999/xlink" x="0px" y="0px"
	 viewBox="0 0 779.9 822.3" style="enable-background:new 0 0 779.9 822.3;" xml:space="preserve">
<style type="text/css">
	.st0{fill:#146DAD;}
	.st1{fill:#33A0CE;}
	.st2{fill:#FFFFFF;}
	.st3{fill:#170A04;}
	.st4{fill:#E1EEE7;}
</style>
<g id="shita">
</g>
<g id="ue">
	<g>
		<polygon class="st0" points="427.8,448.8 376.5,462.7 324.3,448.8 312.7,319.3 438.2,319.3 		"/>
		<polygon class="st1" points="376.5,329.3 376.5,453.3 418.9,441 427.8,330.1 		"/>
		<polygon class="st2" points="335.3,344.1 337.4,359.9 396.9,359.9 396.2,376.3 357.8,376.3 359,392.3 395.6,392.3 394.7,413.1 
			376.5,418.3 358.2,413.5 357.5,401.2 341.1,401.2 343,425 376.5,435.1 409.6,425.8 415.3,344.1 		"/>
		<polygon class="st3" points="354.4,298.4 354.4,306.3 333.8,306.3 333.8,279 354.8,279 354.8,287 341.9,287 341.9,298.4 		"/>
		<polygon class="st3" points="385.1,278.7 385.1,285.9 372,285.9 385.1,299 385.1,305.9 360.5,305.9 360.5,299 374.3,299 
			360.2,285.6 360.2,278.7 		"/>
		<polygon class="st3" points="416.3,278.7 416.3,285.9 403.2,285.9 416.3,299 416.3,305.9 391.7,305.9 391.7,299 405.5,299 
			391.4,285.6 391.4,278.7 		"/>
		<polygon class="st1" points="396.9,359.9 376.5,359.9 376.5,376.3 396.2,376.3 		"/>
		<polygon class="st1" points="395.6,392.3 376.5,392.3 376.5,418.3 394.7,413.1 		"/>
		<polygon class="st1" points="376.5,329.3 376.5,344.1 415.3,344.1 409.6,425.8 376.5,435.1 376.5,453.3 418.9,441 427.8,330.1 		
			"/>
		<polygon class="st4" points="357.8,376.3 359,392.3 376.5,392.3 376.5,376.3 		"/>
		<polygon class="st4" points="335.3,344.1 337.4,359.9 376.5,359.9 376.5,344.1 		"/>
		<polygon class="st4" points="358.2,413.5 357.5,401.2 341.1,401.2 343,425 376.5,435.1 376.5,418.3 		"/>
		<polygon class="st2" points="415.3,344.1 376.5,344.1 376.5,359.9 396.9,359.9 396.2,376.3 376.5,376.3 376.5,392.3 395.6,392.3 
			394.7,413.1 376.5,418.3 376.5,435.1 409.6,425.8 		"/>
	</g>
</g>
</svg>
