<?xml version="1.0" encoding="utf-8"?>
<!-- Generator: Adobe Illustrator 20.0.0, SVG Export Plug-In . SVG Version: 6.00 Build 0)  -->
<svg version="1.1" xmlns="http://www.w3.org/2000/svg" xmlns:xlink="http://www.w3.org/1999/xlink" x="0px" y="0px"
	 viewBox="0 0 779.9 822.3" style="enable-background:new 0 0 779.9 822.3;" xml:space="preserve">
<style type="text/css">
	.st0{fill:#DC9E2D;}
	.st1{fill:#E6B82C;}
	.st2{fill:#040000;}
	.st3{fill:#FFFFFF;}
	.st4{fill:none;}
	.st5{fill:#EBEDEF;}
</style>
<g id="shita">
</g>
<g id="ue">
	<g>
		<polygon class="st0" points="445.2,407.6 393.8,421.5 341.6,407.6 329.9,277.9 455.6,277.9 		"/>
		<polygon class="st1" points="393.8,288 393.8,412 436.2,399.7 445.2,288.7 		"/>
		<polygon class="st2" points="416.3,244.4 416.3,250.5 405.1,250.5 416.3,261.8 416.3,267.6 395.3,267.6 395.3,261.8 407.1,261.8 
			395.1,250.3 395.1,244.4 		"/>
		<polygon class="st3" points="413.4,329.3 429.8,329.3 426.8,295.4 363.8,295.4 358.6,352 412.3,352 410.8,373.7 394,378.1 
			373.9,372.5 373.9,361 358.2,361 359.7,385.2 393.3,395.3 426.4,384.8 429.8,336.4 375.4,336.4 378,310.7 413,310.7 		"/>
		<polygon class="st2" points="390,245.2 381.9,245.2 381.9,260.2 370.6,260.2 370.6,268.2 390,268.2 		"/>
		<polygon class="st4" points="375.4,336.4 393.8,336.4 393.8,310.7 378,310.7 		"/>
		<polygon class="st1" points="410.8,373.7 412.3,352 393.8,352 393.8,378.1 394,378.1 		"/>
		<polygon class="st1" points="393.8,288 393.8,295.4 426.8,295.4 429.8,329.3 413.4,329.3 413,310.7 393.8,310.7 393.8,336.4 
			429.8,336.4 426.4,384.8 393.8,395.1 393.8,412 436.2,399.7 445.2,288.7 		"/>
		<polygon class="st5" points="373.9,372.5 373.9,361 358.2,361 359.7,385.2 393.3,395.3 393.8,395.1 393.8,378.1 		"/>
		<polygon class="st5" points="375.4,336.4 378,310.7 393.8,310.7 393.8,295.4 363.8,295.4 358.6,352 393.8,352 393.8,336.4 		"/>
		<polygon class="st3" points="429.8,336.4 393.8,336.4 393.8,352 412.3,352 410.8,373.7 394,378.1 393.8,378.1 393.8,395.1 
			426.4,384.8 		"/>
		<polygon class="st3" points="413,310.7 413.4,329.3 429.8,329.3 426.8,295.4 393.8,295.4 393.8,310.7 		"/>
	</g>
</g>
</svg>
